<mxfile host="app.diagrams.net" agent="Mozilla/5.0 (Windows NT 10.0; Win64; x64) AppleWebKit/537.36 (KHTML, like Gecko) Chrome/135.0.0.0 Safari/537.36" version="26.2.13">
  <diagram name="Page-1" id="vgto2aEgP88YCSZaV1f0">
    <mxGraphModel grid="1" page="1" gridSize="10" guides="1" tooltips="1" connect="1" arrows="1" fold="1" pageScale="1" pageWidth="827" pageHeight="1169" math="0" shadow="0">
      <root>
        <mxCell id="0" />
        <mxCell id="1" parent="0" />
        <mxCell id="GAB3RpLmGeA4mPV0VDNT-2" value="" style="rounded=0;whiteSpace=wrap;html=1;" vertex="1" parent="1">
          <mxGeometry x="190" y="90" width="600" height="860" as="geometry" />
        </mxCell>
        <mxCell id="GAB3RpLmGeA4mPV0VDNT-4" value="&lt;b&gt;&lt;font style=&quot;font-size: 36px;&quot;&gt;DevBook&lt;/font&gt;&lt;/b&gt;" style="text;html=1;align=center;verticalAlign=middle;whiteSpace=wrap;rounded=0;" vertex="1" parent="1">
          <mxGeometry x="415" y="130" width="60" height="30" as="geometry" />
        </mxCell>
        <mxCell id="GAB3RpLmGeA4mPV0VDNT-5" value="user" style="shape=umlActor;verticalLabelPosition=bottom;verticalAlign=top;html=1;outlineConnect=0;" vertex="1" parent="1">
          <mxGeometry x="37" y="435" width="70" height="150" as="geometry" />
        </mxCell>
        <mxCell id="GAB3RpLmGeA4mPV0VDNT-7" value="paginate books" style="ellipse;whiteSpace=wrap;html=1;" vertex="1" parent="1">
          <mxGeometry x="481" y="361" width="170" height="60" as="geometry" />
        </mxCell>
        <mxCell id="GAB3RpLmGeA4mPV0VDNT-9" value="add book" style="ellipse;whiteSpace=wrap;html=1;" vertex="1" parent="1">
          <mxGeometry x="244" y="311" width="180" height="80" as="geometry" />
        </mxCell>
        <mxCell id="GAB3RpLmGeA4mPV0VDNT-11" value="filter books" style="ellipse;whiteSpace=wrap;html=1;" vertex="1" parent="1">
          <mxGeometry x="511" y="230" width="170" height="60" as="geometry" />
        </mxCell>
        <mxCell id="GAB3RpLmGeA4mPV0VDNT-12" value="view books" style="ellipse;whiteSpace=wrap;html=1;" vertex="1" parent="1">
          <mxGeometry x="244" y="210" width="171" height="80" as="geometry" />
        </mxCell>
        <mxCell id="GAB3RpLmGeA4mPV0VDNT-14" value="delete book" style="ellipse;whiteSpace=wrap;html=1;" vertex="1" parent="1">
          <mxGeometry x="253" y="421" width="180" height="80" as="geometry" />
        </mxCell>
        <mxCell id="GAB3RpLmGeA4mPV0VDNT-15" value="update book" style="ellipse;whiteSpace=wrap;html=1;" vertex="1" parent="1">
          <mxGeometry x="253" y="651" width="180" height="80" as="geometry" />
        </mxCell>
        <mxCell id="GAB3RpLmGeA4mPV0VDNT-17" value="borrow book" style="ellipse;whiteSpace=wrap;html=1;" vertex="1" parent="1">
          <mxGeometry x="253" y="541" width="180" height="80" as="geometry" />
        </mxCell>
        <mxCell id="GAB3RpLmGeA4mPV0VDNT-19" value="" style="endArrow=open;html=1;rounded=0;dashed=1;endFill=0;entryX=1;entryY=0;entryDx=0;entryDy=0;exitX=0.039;exitY=0.207;exitDx=0;exitDy=0;exitPerimeter=0;" edge="1" parent="1">
          <mxGeometry width="50" height="50" relative="1" as="geometry">
            <mxPoint x="517.6300000000001" y="243.41999999999985" as="sourcePoint" />
            <mxPoint x="389.9415527733447" y="222.70820934013614" as="targetPoint" />
          </mxGeometry>
        </mxCell>
        <mxCell id="GAB3RpLmGeA4mPV0VDNT-22" value="&amp;lt;&amp;lt; extend &amp;gt;&amp;gt;" style="edgeLabel;html=1;align=center;verticalAlign=middle;resizable=0;points=[];" connectable="0" vertex="1" parent="GAB3RpLmGeA4mPV0VDNT-19">
          <mxGeometry x="-0.2441" y="-3" relative="1" as="geometry">
            <mxPoint as="offset" />
          </mxGeometry>
        </mxCell>
        <mxCell id="GAB3RpLmGeA4mPV0VDNT-20" value="" style="endArrow=open;html=1;rounded=0;dashed=1;endFill=0;entryX=0.967;entryY=0.673;entryDx=0;entryDy=0;entryPerimeter=0;" edge="1" parent="1" source="GAB3RpLmGeA4mPV0VDNT-7">
          <mxGeometry width="50" height="50" relative="1" as="geometry">
            <mxPoint x="501" y="491" as="sourcePoint" />
            <mxPoint x="409.35699999999997" y="264.8399999999999" as="targetPoint" />
          </mxGeometry>
        </mxCell>
        <mxCell id="GAB3RpLmGeA4mPV0VDNT-21" value="&amp;lt;&amp;lt; extend &amp;gt;&amp;gt;" style="edgeLabel;html=1;align=center;verticalAlign=middle;resizable=0;points=[];" connectable="0" vertex="1" parent="GAB3RpLmGeA4mPV0VDNT-20">
          <mxGeometry x="-0.0197" y="1" relative="1" as="geometry">
            <mxPoint as="offset" />
          </mxGeometry>
        </mxCell>
        <mxCell id="GAB3RpLmGeA4mPV0VDNT-23" value="" style="endArrow=classic;html=1;rounded=0;entryX=0.5;entryY=0.5;entryDx=0;entryDy=0;entryPerimeter=0;exitX=0;exitY=0.5;exitDx=0;exitDy=0;" edge="1" parent="1" source="GAB3RpLmGeA4mPV0VDNT-12" target="GAB3RpLmGeA4mPV0VDNT-5">
          <mxGeometry width="50" height="50" relative="1" as="geometry">
            <mxPoint x="370" y="510" as="sourcePoint" />
            <mxPoint x="420" y="460" as="targetPoint" />
          </mxGeometry>
        </mxCell>
        <mxCell id="GAB3RpLmGeA4mPV0VDNT-24" value="" style="endArrow=classic;html=1;rounded=0;entryX=0.5;entryY=0.5;entryDx=0;entryDy=0;entryPerimeter=0;exitX=0;exitY=0.5;exitDx=0;exitDy=0;" edge="1" parent="1" source="GAB3RpLmGeA4mPV0VDNT-9" target="GAB3RpLmGeA4mPV0VDNT-5">
          <mxGeometry width="50" height="50" relative="1" as="geometry">
            <mxPoint x="380" y="520" as="sourcePoint" />
            <mxPoint x="430" y="470" as="targetPoint" />
          </mxGeometry>
        </mxCell>
        <mxCell id="GAB3RpLmGeA4mPV0VDNT-25" value="" style="endArrow=classic;html=1;rounded=0;entryX=0.5;entryY=0.5;entryDx=0;entryDy=0;entryPerimeter=0;exitX=0.023;exitY=0.373;exitDx=0;exitDy=0;exitPerimeter=0;" edge="1" parent="1" source="GAB3RpLmGeA4mPV0VDNT-14" target="GAB3RpLmGeA4mPV0VDNT-5">
          <mxGeometry width="50" height="50" relative="1" as="geometry">
            <mxPoint x="230" y="520" as="sourcePoint" />
            <mxPoint x="440" y="480" as="targetPoint" />
          </mxGeometry>
        </mxCell>
        <mxCell id="GAB3RpLmGeA4mPV0VDNT-26" value="" style="endArrow=classic;html=1;rounded=0;entryX=0.5;entryY=0.5;entryDx=0;entryDy=0;entryPerimeter=0;" edge="1" parent="1" source="GAB3RpLmGeA4mPV0VDNT-17" target="GAB3RpLmGeA4mPV0VDNT-5">
          <mxGeometry width="50" height="50" relative="1" as="geometry">
            <mxPoint x="400" y="540" as="sourcePoint" />
            <mxPoint x="450" y="490" as="targetPoint" />
          </mxGeometry>
        </mxCell>
        <mxCell id="GAB3RpLmGeA4mPV0VDNT-27" value="" style="endArrow=classic;html=1;rounded=0;entryX=0.5;entryY=0.5;entryDx=0;entryDy=0;entryPerimeter=0;exitX=0;exitY=0;exitDx=0;exitDy=0;" edge="1" parent="1" source="GAB3RpLmGeA4mPV0VDNT-15" target="GAB3RpLmGeA4mPV0VDNT-5">
          <mxGeometry width="50" height="50" relative="1" as="geometry">
            <mxPoint x="410" y="550" as="sourcePoint" />
            <mxPoint x="460" y="500" as="targetPoint" />
          </mxGeometry>
        </mxCell>
        <mxCell id="GAB3RpLmGeA4mPV0VDNT-30" value="returne book" style="ellipse;whiteSpace=wrap;html=1;" vertex="1" parent="1">
          <mxGeometry x="248.5" y="761" width="171" height="80" as="geometry" />
        </mxCell>
        <mxCell id="GAB3RpLmGeA4mPV0VDNT-32" value="" style="endArrow=classic;html=1;rounded=0;entryX=0.5;entryY=0.5;entryDx=0;entryDy=0;entryPerimeter=0;exitX=0;exitY=0.5;exitDx=0;exitDy=0;" edge="1" parent="1" source="GAB3RpLmGeA4mPV0VDNT-30" target="GAB3RpLmGeA4mPV0VDNT-5">
          <mxGeometry width="50" height="50" relative="1" as="geometry">
            <mxPoint x="290" y="672" as="sourcePoint" />
            <mxPoint x="82" y="520" as="targetPoint" />
          </mxGeometry>
        </mxCell>
        <mxCell id="GAB3RpLmGeA4mPV0VDNT-36" value="authentification" style="ellipse;whiteSpace=wrap;html=1;" vertex="1" parent="1">
          <mxGeometry x="580" y="490" width="170" height="60" as="geometry" />
        </mxCell>
        <mxCell id="GAB3RpLmGeA4mPV0VDNT-37" value="" style="endArrow=open;html=1;rounded=0;dashed=1;endFill=0;entryX=1;entryY=0.5;entryDx=0;entryDy=0;exitX=0;exitY=1;exitDx=0;exitDy=0;" edge="1" parent="1" source="GAB3RpLmGeA4mPV0VDNT-36" target="GAB3RpLmGeA4mPV0VDNT-15">
          <mxGeometry width="50" height="50" relative="1" as="geometry">
            <mxPoint x="542" y="374" as="sourcePoint" />
            <mxPoint x="419.35699999999997" y="274.8399999999999" as="targetPoint" />
            <Array as="points">
              <mxPoint x="580" y="660" />
            </Array>
          </mxGeometry>
        </mxCell>
        <mxCell id="GAB3RpLmGeA4mPV0VDNT-55" value="&amp;lt;&amp;lt; include &amp;gt;&amp;gt;" style="edgeLabel;html=1;align=center;verticalAlign=middle;resizable=0;points=[];" connectable="0" vertex="1" parent="GAB3RpLmGeA4mPV0VDNT-37">
          <mxGeometry x="-0.4464" y="2" relative="1" as="geometry">
            <mxPoint as="offset" />
          </mxGeometry>
        </mxCell>
        <mxCell id="GAB3RpLmGeA4mPV0VDNT-44" value="" style="endArrow=open;html=1;rounded=0;dashed=1;endFill=0;entryX=1;entryY=0.5;entryDx=0;entryDy=0;exitX=0;exitY=0;exitDx=0;exitDy=0;" edge="1" parent="1" source="GAB3RpLmGeA4mPV0VDNT-36" target="GAB3RpLmGeA4mPV0VDNT-14">
          <mxGeometry width="50" height="50" relative="1" as="geometry">
            <mxPoint x="693.5" y="361" as="sourcePoint" />
            <mxPoint x="498.5" y="510" as="targetPoint" />
            <Array as="points">
              <mxPoint x="530" y="470" />
            </Array>
          </mxGeometry>
        </mxCell>
        <mxCell id="GAB3RpLmGeA4mPV0VDNT-53" value="&amp;lt;&amp;lt; include &amp;gt;&amp;gt;" style="edgeLabel;html=1;align=center;verticalAlign=middle;resizable=0;points=[];" connectable="0" vertex="1" parent="GAB3RpLmGeA4mPV0VDNT-44">
          <mxGeometry x="0.1868" y="1" relative="1" as="geometry">
            <mxPoint x="-1" as="offset" />
          </mxGeometry>
        </mxCell>
        <mxCell id="GAB3RpLmGeA4mPV0VDNT-45" value="" style="endArrow=open;html=1;rounded=0;dashed=1;endFill=0;entryX=1;entryY=0.5;entryDx=0;entryDy=0;exitX=0;exitY=0.5;exitDx=0;exitDy=0;" edge="1" parent="1" source="GAB3RpLmGeA4mPV0VDNT-36" target="GAB3RpLmGeA4mPV0VDNT-17">
          <mxGeometry width="50" height="50" relative="1" as="geometry">
            <mxPoint x="614.5" y="410" as="sourcePoint" />
            <mxPoint x="419.5" y="559" as="targetPoint" />
          </mxGeometry>
        </mxCell>
        <mxCell id="GAB3RpLmGeA4mPV0VDNT-46" value="" style="endArrow=open;html=1;rounded=0;dashed=1;endFill=0;entryX=1;entryY=0.5;entryDx=0;entryDy=0;exitX=0.5;exitY=1;exitDx=0;exitDy=0;" edge="1" parent="1" source="GAB3RpLmGeA4mPV0VDNT-36" target="GAB3RpLmGeA4mPV0VDNT-30">
          <mxGeometry width="50" height="50" relative="1" as="geometry">
            <mxPoint x="658" y="572" as="sourcePoint" />
            <mxPoint x="463" y="721" as="targetPoint" />
            <Array as="points">
              <mxPoint x="658" y="750" />
            </Array>
          </mxGeometry>
        </mxCell>
        <mxCell id="GAB3RpLmGeA4mPV0VDNT-56" value="&amp;lt;&amp;lt; include &amp;gt;&amp;gt;" style="edgeLabel;html=1;align=center;verticalAlign=middle;resizable=0;points=[];" connectable="0" vertex="1" parent="GAB3RpLmGeA4mPV0VDNT-46">
          <mxGeometry x="-0.4271" y="4" relative="1" as="geometry">
            <mxPoint y="1" as="offset" />
          </mxGeometry>
        </mxCell>
        <mxCell id="GAB3RpLmGeA4mPV0VDNT-47" value="" style="endArrow=open;html=1;rounded=0;dashed=1;endFill=0;exitX=0.397;exitY=0.084;exitDx=0;exitDy=0;exitPerimeter=0;" edge="1" parent="1" source="GAB3RpLmGeA4mPV0VDNT-36">
          <mxGeometry width="50" height="50" relative="1" as="geometry">
            <mxPoint x="668" y="582" as="sourcePoint" />
            <mxPoint x="585" y="420" as="targetPoint" />
            <Array as="points" />
          </mxGeometry>
        </mxCell>
        <mxCell id="GAB3RpLmGeA4mPV0VDNT-51" value="&amp;lt;&amp;lt; include &amp;gt;&amp;gt;" style="edgeLabel;html=1;align=center;verticalAlign=middle;resizable=0;points=[];" connectable="0" vertex="1" parent="GAB3RpLmGeA4mPV0VDNT-47">
          <mxGeometry x="-0.0174" y="-1" relative="1" as="geometry">
            <mxPoint x="1" as="offset" />
          </mxGeometry>
        </mxCell>
        <mxCell id="GAB3RpLmGeA4mPV0VDNT-48" value="" style="endArrow=open;html=1;rounded=0;dashed=1;endFill=0;entryX=0.941;entryY=0.763;entryDx=0;entryDy=0;exitX=0.275;exitY=0.183;exitDx=0;exitDy=0;exitPerimeter=0;entryPerimeter=0;" edge="1" parent="1" source="GAB3RpLmGeA4mPV0VDNT-36" target="GAB3RpLmGeA4mPV0VDNT-9">
          <mxGeometry width="50" height="50" relative="1" as="geometry">
            <mxPoint x="678" y="592" as="sourcePoint" />
            <mxPoint x="483" y="741" as="targetPoint" />
            <Array as="points" />
          </mxGeometry>
        </mxCell>
        <mxCell id="GAB3RpLmGeA4mPV0VDNT-52" value="&amp;lt;&amp;lt; include &amp;gt;&amp;gt;" style="edgeLabel;html=1;align=center;verticalAlign=middle;resizable=0;points=[];" connectable="0" vertex="1" parent="GAB3RpLmGeA4mPV0VDNT-48">
          <mxGeometry x="-0.1226" y="-1" relative="1" as="geometry">
            <mxPoint x="-1" as="offset" />
          </mxGeometry>
        </mxCell>
        <mxCell id="GAB3RpLmGeA4mPV0VDNT-49" value="" style="endArrow=open;html=1;rounded=0;dashed=1;endFill=0;entryX=1;entryY=1;entryDx=0;entryDy=0;exitX=0.615;exitY=0.109;exitDx=0;exitDy=0;exitPerimeter=0;" edge="1" parent="1" source="GAB3RpLmGeA4mPV0VDNT-36" target="GAB3RpLmGeA4mPV0VDNT-11">
          <mxGeometry width="50" height="50" relative="1" as="geometry">
            <mxPoint x="688" y="602" as="sourcePoint" />
            <mxPoint x="493" y="751" as="targetPoint" />
            <Array as="points">
              <mxPoint x="690" y="390" />
            </Array>
          </mxGeometry>
        </mxCell>
        <mxCell id="GAB3RpLmGeA4mPV0VDNT-50" value="&amp;lt;&amp;lt; include &amp;gt;&amp;gt;" style="edgeLabel;html=1;align=center;verticalAlign=middle;resizable=0;points=[];" connectable="0" vertex="1" parent="GAB3RpLmGeA4mPV0VDNT-49">
          <mxGeometry x="0.1764" y="-6" relative="1" as="geometry">
            <mxPoint y="-1" as="offset" />
          </mxGeometry>
        </mxCell>
        <mxCell id="GAB3RpLmGeA4mPV0VDNT-54" value="&lt;span style=&quot;color: rgb(0, 0, 0); font-family: Helvetica; font-size: 11px; font-style: normal; font-variant-ligatures: normal; font-variant-caps: normal; font-weight: 400; letter-spacing: normal; orphans: 2; text-align: center; text-indent: 0px; text-transform: none; widows: 2; word-spacing: 0px; -webkit-text-stroke-width: 0px; white-space: nowrap; background-color: rgb(255, 255, 255); text-decoration-thickness: initial; text-decoration-style: initial; text-decoration-color: initial; display: inline !important; float: none;&quot;&gt;&amp;lt;&amp;lt; include &amp;gt;&amp;gt;&lt;/span&gt;" style="text;whiteSpace=wrap;html=1;" vertex="1" parent="1">
          <mxGeometry x="510" y="540" width="100" height="40" as="geometry" />
        </mxCell>
      </root>
    </mxGraphModel>
  </diagram>
</mxfile>
